#N canvas 323 149 659 513 24;
#X obj 254 28 netreceive 9000 1;
#X obj 254 60 route pitch volume hit;
#X obj 254 94 s pitch;
#X obj 333 131 s volume;
#X obj 413 92 s hit;
#X obj 33 150 phasor~;
#X obj 33 119 mtof~;
#X obj 33 88 line~;
#X msg 33 57 \$1 50;
#X obj 33 25 r pitch;
#X text 35 -13 Ugly wasp;
#X obj 34 373 *~;
#X obj 260 374 line~;
#X obj 34 441 dac~;
#X obj 260 228 r hit;
#X obj 330 292 del;
#X obj 330 261 t b f;
#X obj 260 411 s~ env;
#X obj 103 335 r~ env;
#X obj 33 290 *~;
#X msg 330 325 0 500;
#X msg 260 292 1 50;
#X obj 64 255 line~;
#X msg 64 225 \$1 10;
#X obj 64 193 r volume;
#X obj 493 130 print danced;
#X obj 35 405 *~ 0.2;
#X text 260 196 Envelope generator;
#X connect 0 0 1 0;
#X connect 1 0 2 0;
#X connect 1 1 3 0;
#X connect 1 2 4 0;
#X connect 1 3 25 0;
#X connect 5 0 19 0;
#X connect 6 0 5 0;
#X connect 7 0 6 0;
#X connect 8 0 7 0;
#X connect 9 0 8 0;
#X connect 11 0 26 0;
#X connect 12 0 17 0;
#X connect 14 0 21 0;
#X connect 14 0 16 0;
#X connect 15 0 20 0;
#X connect 16 0 15 0;
#X connect 16 1 15 1;
#X connect 18 0 11 1;
#X connect 19 0 11 0;
#X connect 20 0 12 0;
#X connect 21 0 12 0;
#X connect 22 0 19 1;
#X connect 23 0 22 0;
#X connect 24 0 23 0;
#X connect 26 0 13 0;
#X connect 26 0 13 1;
