#N canvas 15 123 659 589 24;
#X obj 33 196 phasor~;
#X obj 33 165 mtof~;
#X obj 33 96 line~;
#X obj 33 25 r pitch;
#X obj 34 419 *~;
#X obj 260 374 line~;
#X obj 35 487 dac~;
#X obj 260 228 r hit;
#X obj 330 292 del;
#X obj 330 261 t b f;
#X obj 33 336 *~;
#X msg 330 325 0 500;
#X msg 260 292 1 50;
#X obj 64 301 line~;
#X msg 64 271 \$1 10;
#X obj 64 239 r volume;
#X text 35 -9 Homogeneous wasp;
#X obj 260 411 s~ \$0-env;
#X obj 103 381 r~ \$0-env;
#X obj 33 61 pack f \$1;
#X obj 35 449 *~ 0.2;
#X connect 0 0 10 0;
#X connect 1 0 0 0;
#X connect 2 0 1 0;
#X connect 3 0 19 0;
#X connect 4 0 20 0;
#X connect 5 0 17 0;
#X connect 7 0 12 0;
#X connect 7 0 9 0;
#X connect 8 0 11 0;
#X connect 9 0 8 0;
#X connect 9 1 8 1;
#X connect 10 0 4 0;
#X connect 11 0 5 0;
#X connect 12 0 5 0;
#X connect 13 0 10 1;
#X connect 14 0 13 0;
#X connect 15 0 14 0;
#X connect 18 0 4 1;
#X connect 19 0 2 0;
#X connect 20 0 6 0;
#X connect 20 0 6 1;
