#N canvas 1 130 659 589 24;
#X obj 33 196 phasor~;
#X obj 33 165 mtof~;
#X obj 33 126 line~;
#X obj 33 25 r pitch;
#X obj 425 385 line~;
#X obj 35 487 dac~;
#X obj 425 183 r hit;
#X obj 495 303 del;
#X obj 495 272 t b f;
#X obj 34 334 *~;
#X msg 495 336 0 500;
#X msg 425 303 1 50;
#X obj 65 299 line~;
#X msg 65 269 \$1 10;
#X obj 65 237 r volume;
#X text 35 -9 Homogeneous wasp;
#X obj 425 422 s~ \$0-env;
#X obj 103 381 r~ \$0-env;
#X obj 35 449 *~ 0.2;
#X obj 33 59 pipe \$1;
#X obj 36 419 *~;
#X obj 169 236 loadbang;
#X msg 169 266 0.2 10;
#X msg 33 94 \$1 100;
#X obj 426 215 pipe \$1;
#X connect 0 0 9 0;
#X connect 1 0 0 0;
#X connect 2 0 1 0;
#X connect 3 0 19 0;
#X connect 4 0 16 0;
#X connect 6 0 24 0;
#X connect 7 0 10 0;
#X connect 8 0 7 0;
#X connect 8 1 7 1;
#X connect 9 0 20 0;
#X connect 10 0 4 0;
#X connect 11 0 4 0;
#X connect 12 0 9 1;
#X connect 13 0 12 0;
#X connect 14 0 13 0;
#X connect 17 0 20 1;
#X connect 18 0 5 0;
#X connect 18 0 5 1;
#X connect 19 0 23 0;
#X connect 20 0 18 0;
#X connect 21 0 22 0;
#X connect 22 0 12 0;
#X connect 23 0 2 0;
#X connect 24 0 8 0;
#X connect 24 0 11 0;
